<svg xmlns="http://www.w3.org/2000/svg" xmlns:xlink="http://www.w3.org/1999/xlink" width="146.245" height="51.219" viewBox="0 0 146.245 51.219">
  <defs>
    <linearGradient id="linear-gradient" x1="-0.832" y1="1.217" x2="1.49" y2="-0.613" gradientUnits="objectBoundingBox">
      <stop offset="0.287" stop-color="#93278f"/>
      <stop offset="0.681" stop-color="#ff931e"/>
    </linearGradient>
    <linearGradient id="linear-gradient-2" x1="-1.729" y1="1.834" x2="2.288" y2="-0.357" xlink:href="#linear-gradient"/>
  </defs>
  <g id="Grupo_2" data-name="Grupo 2" transform="translate(-238.222 -460.192)">
    <g id="Grupo_1" data-name="Grupo 1" transform="translate(238.222 460.192)">
      <path id="Caminho_1" data-name="Caminho 1" d="M279.485,461.161a3.309,3.309,0,0,0-4.68,0L259.337,476.63l-15.469-15.469a3.306,3.306,0,0,0-5.643,2.455V501.7a3.309,3.309,0,1,0,6.618,0V471.5l12.139,12.139a3.349,3.349,0,0,0,4.71,0l17.793-17.794A3.309,3.309,0,0,0,279.485,461.161Z" transform="translate(-238.222 -460.192)" fill="url(#linear-gradient)"/>
      <path id="Caminho_2" data-name="Caminho 2" d="M331.214,481.644a3.31,3.31,0,0,0-4.68,0l-17.794,17.794a3.309,3.309,0,0,0,4.68,4.68l4.949-4.949v15.638a3.309,3.309,0,1,0,6.618,0V492.551l6.227-6.227A3.309,3.309,0,0,0,331.214,481.644Z" transform="translate(-282.719 -473.297)" fill="url(#linear-gradient-2)"/>
    </g>
    <path id="Caminho_3" data-name="Caminho 3" d="M392.059,534.145a14.21,14.21,0,0,1-14.438-14.478v-.08A14.308,14.308,0,0,1,392.3,505.028c5.309,0,8.486,1.77,11.1,4.344l-3.941,4.544c-2.172-1.971-4.383-3.177-7.2-3.177-4.746,0-8.164,3.941-8.164,8.767v.081c0,4.826,3.338,8.847,8.164,8.847,3.217,0,5.188-1.286,7.4-3.3l3.941,3.981A14.391,14.391,0,0,1,392.059,534.145Z" transform="translate(-89.186 -28.686)" fill="#fff"/>
    <path id="Caminho_4" data-name="Caminho 4" d="M469.29,546c-6.676,0-11.623-4.947-11.623-11.14v-.081c0-6.193,4.987-11.22,11.7-11.22,6.676,0,11.622,4.946,11.622,11.14v.08C480.993,540.977,476.006,546,469.29,546Zm0-17.173c-3.5,0-5.59,2.694-5.59,5.872v.08a5.727,5.727,0,0,0,5.67,5.952c3.5,0,5.59-2.695,5.59-5.872v-.081A5.727,5.727,0,0,0,469.29,528.831Z" transform="translate(-140.398 -40.544)" fill="#fff"/>
    <path id="Caminho_5" data-name="Caminho 5" d="M540.811,537.542V545.5H534.7V523.948h6.113v4.343c1.247-2.976,3.258-4.906,6.877-4.745v6.394h-.322C543.3,529.94,540.811,532.394,540.811,537.542Z" transform="translate(-189.682 -40.528)" fill="#fff"/>
    <path id="Caminho_6" data-name="Caminho 6" d="M594.194,545.923a8.28,8.28,0,0,1-6.716-3.217v9.249h-6.113V523.965h6.113v3.1a7.915,7.915,0,0,1,6.716-3.5c5.027,0,9.813,3.941,9.813,11.14v.08C604.007,541.982,599.3,545.923,594.194,545.923Zm-1.568-17.173c-2.855,0-5.228,2.373-5.228,5.952v.08c0,3.579,2.373,5.952,5.228,5.952s5.269-2.333,5.269-5.952v-.08C597.894,531.123,595.481,528.751,592.626,528.751Z" transform="translate(-219.539 -40.544)" fill="#fff"/>
  </g>
</svg>
