<svg id="svg" version="1.1" xmlns="http://www.w3.org/2000/svg" xmlns:xlink="http://www.w3.org/1999/xlink" width="400" height="347.1698113207547" viewBox="0, 0, 400,347.1698113207547"><g id="svgg"><path id="path0" d="M195.226 16.212 C 195.560 16.299,196.107 16.299,196.441 16.212 C 196.775 16.124,196.502 16.053,195.833 16.053 C 195.165 16.053,194.891 16.124,195.226 16.212 M223.351 16.212 C 223.685 16.299,224.232 16.299,224.566 16.212 C 224.900 16.124,224.627 16.053,223.958 16.053 C 223.290 16.053,223.016 16.124,223.351 16.212 M121.528 134.008 C 119.332 134.337,117.222 134.763,116.840 134.956 C 116.458 135.149,115.365 135.674,114.410 136.122 C 108.061 139.104,105.382 143.790,105.382 151.910 C 105.383 159.844,108.210 162.919,118.576 166.260 C 127.325 169.079,130.208 171.029,130.208 174.127 C 130.208 176.839,127.722 178.253,122.917 178.274 C 117.852 178.297,116.848 177.757,115.264 174.153 C 113.882 171.007,114.048 171.077,108.028 171.137 C 102.624 171.191,102.057 171.408,100.980 173.843 C 99.039 178.232,102.271 185.467,107.302 187.993 C 114.033 191.374,130.825 190.580,137.227 186.577 C 145.487 181.413,147.266 167.189,140.366 161.473 C 138.355 159.807,131.520 156.944,129.554 156.944 C 127.409 156.944,120.865 153.787,120.118 152.392 C 118.017 148.465,121.212 144.972,126.910 144.968 C 131.919 144.964,133.945 146.839,133.730 151.280 C 133.617 153.615,134.106 153.888,138.771 154.097 C 146.317 154.435,148.272 152.828,148.260 146.301 C 148.241 136.121,138.213 131.510,121.528 134.008 M147.569 135.243 C 148.217 135.911,148.825 136.458,148.921 136.458 C 149.016 136.458,148.565 135.911,147.917 135.243 C 147.269 134.575,146.661 134.028,146.565 134.028 C 146.470 134.028,146.922 134.575,147.569 135.243 M243.750 134.325 C 241.987 134.835,242.091 135.254,248.770 154.514 C 249.863 157.665,250.970 160.946,251.231 161.806 C 251.491 162.665,252.041 164.306,252.453 165.451 C 253.292 167.789,253.228 170.477,252.250 173.958 C 251.955 175.009,251.491 177.587,251.218 179.688 C 250.946 181.788,250.561 184.053,250.362 184.720 C 249.140 188.816,249.728 189.236,256.671 189.236 C 264.061 189.236,264.162 189.109,265.483 178.125 C 265.609 177.075,265.932 175.512,266.199 174.653 C 266.467 173.793,266.819 171.974,266.982 170.609 C 267.246 168.386,268.749 165.174,270.127 163.889 C 270.230 163.793,270.948 162.778,271.723 161.632 C 272.499 160.486,273.740 158.689,274.481 157.639 C 277.195 153.793,277.959 152.695,278.299 152.154 C 278.490 151.849,278.776 151.436,278.934 151.234 C 281.254 148.289,288.823 137.031,288.909 136.398 C 289.193 134.305,288.135 133.942,282.180 134.087 C 276.487 134.226,277.007 133.865,272.239 140.972 C 262.584 155.364,262.998 155.123,260.715 147.691 C 257.842 138.343,256.882 135.464,256.433 134.849 C 255.929 134.158,245.778 133.739,243.750 134.325 M170.313 151.418 C 165.905 151.633,165.513 151.706,162.500 152.887 C 156.226 155.346,152.848 160.286,151.412 169.097 C 149.595 180.249,149.613 181.662,151.612 184.948 C 155.440 191.244,174.060 192.007,181.360 186.168 C 184.871 183.360,187.815 177.154,187.839 172.510 C 187.843 171.618,188.176 169.509,188.578 167.823 C 191.406 155.961,185.524 150.678,170.313 151.418 M298.846 151.452 C 288.599 152.315,282.529 158.705,281.427 169.792 C 281.303 171.033,280.979 173.095,280.705 174.374 C 278.381 185.252,283.032 189.931,296.172 189.931 C 310.632 189.931,316.330 185.155,318.080 171.567 C 318.292 169.922,318.764 167.414,319.129 165.994 C 319.963 162.742,319.958 162.293,319.047 159.637 C 316.696 152.776,310.918 150.436,298.846 151.452 M199.494 152.865 C 198.766 153.502,198.541 154.125,198.270 156.250 C 198.087 157.682,197.774 159.401,197.574 160.069 C 197.373 160.738,196.890 163.394,196.500 165.972 C 196.110 168.550,195.535 171.441,195.222 172.396 C 194.616 174.246,194.367 183.308,194.873 185.107 C 195.013 185.605,195.911 186.773,196.869 187.702 C 199.018 189.787,199.046 190.428,197.059 192.122 C 189.559 198.516,191.583 208.607,200.795 210.749 C 211.831 213.315,221.666 208.502,226.308 198.264 C 227.688 195.220,229.068 190.029,229.354 186.806 C 229.480 185.373,229.881 182.951,230.243 181.424 C 230.605 179.896,231.064 177.240,231.263 175.521 C 231.462 173.802,231.921 171.380,232.282 170.139 C 232.644 168.898,233.099 166.398,233.294 164.583 C 233.489 162.769,233.961 159.920,234.343 158.253 C 235.577 152.866,234.911 152.083,229.089 152.083 C 222.638 152.083,221.500 153.039,221.025 158.854 C 220.900 160.382,220.562 162.549,220.275 163.670 C 219.987 164.790,219.446 167.837,219.073 170.441 C 218.219 176.390,217.533 177.606,214.512 178.526 C 209.000 180.204,207.069 175.227,209.710 166.147 C 210.099 164.811,210.419 163.014,210.422 162.154 C 210.425 161.294,210.654 159.653,210.931 158.507 C 211.608 155.703,211.600 153.317,210.913 152.629 C 209.936 151.652,200.659 151.844,199.494 152.865 M173.180 162.498 C 176.122 164.292,176.314 168.887,173.711 175.174 C 170.379 183.217,161.666 179.298,164.349 170.963 C 164.649 170.032,164.998 168.527,165.126 167.619 C 165.709 163.460,170.139 160.644,173.180 162.498 M303.503 162.597 C 307.277 165.141,305.220 176.544,300.582 178.790 C 295.804 181.103,292.906 177.585,294.314 171.181 C 296.058 163.247,299.582 159.955,303.503 162.597 M104.774 167.268 C 105.586 167.341,106.914 167.341,107.726 167.268 C 108.537 167.195,107.873 167.135,106.250 167.135 C 104.627 167.135,103.963 167.195,104.774 167.268 M170.914 170.833 C 170.914 171.502,170.985 171.775,171.073 171.441 C 171.160 171.107,171.160 170.560,171.073 170.226 C 170.985 169.891,170.914 170.165,170.914 170.833 M276.512 178.993 C 276.511 180.712,276.570 181.459,276.643 180.653 C 276.715 179.847,276.716 178.441,276.645 177.528 C 276.573 176.615,276.513 177.274,276.512 178.993 M246.268 187.326 C 246.272 188.090,246.343 188.362,246.426 187.930 C 246.509 187.498,246.506 186.873,246.419 186.541 C 246.332 186.209,246.264 186.562,246.268 187.326 M215.264 188.864 C 216.650 191.452,212.640 199.895,209.956 200.041 C 206.358 200.237,204.922 198.304,206.294 195.114 C 207.821 191.563,214.295 187.053,215.264 188.864 M279.167 188.303 C 279.167 188.363,279.674 188.871,280.295 189.432 L 281.424 190.451 280.404 189.323 C 279.453 188.271,279.167 188.035,279.167 188.303 M195.226 328.712 C 195.560 328.799,196.107 328.799,196.441 328.712 C 196.775 328.624,196.502 328.553,195.833 328.553 C 195.165 328.553,194.891 328.624,195.226 328.712 M223.698 328.712 C 224.032 328.799,224.579 328.799,224.913 328.712 C 225.247 328.624,224.974 328.553,224.306 328.553 C 223.637 328.553,223.364 328.624,223.698 328.712 " stroke="none" fill="#230b68" fill-rule="evenodd"></path><path id="path1" d="M197.743 20.167 C 195.833 20.315,193.177 20.679,191.840 20.976 C 190.503 21.273,188.603 21.518,187.616 21.522 C 185.978 21.527,181.321 22.431,173.090 24.341 C 158.068 27.827,140.432 35.555,126.242 44.870 C 101.097 61.377,80.634 86.122,69.167 113.889 C 66.338 120.740,62.305 133.252,61.612 137.326 C 61.482 138.090,60.991 140.356,60.521 142.361 C 60.051 144.366,59.524 147.491,59.350 149.306 C 59.176 151.120,58.759 153.854,58.423 155.382 C 57.532 159.438,57.522 186.568,58.411 189.757 C 58.731 190.903,59.093 193.090,59.217 194.618 C 59.341 196.146,59.881 199.349,60.417 201.736 C 60.954 204.123,61.495 206.701,61.620 207.465 C 61.887 209.093,62.426 211.035,64.318 217.188 C 66.817 225.317,68.315 229.153,72.579 238.346 C 75.965 245.647,75.997 244.501,72.071 256.424 C 70.447 261.354,67.809 269.607,64.746 279.340 C 63.664 282.778,61.690 288.872,60.359 292.882 C 57.192 302.425,56.962 304.633,58.898 306.933 C 60.923 309.339,63.332 309.850,67.307 308.716 C 68.578 308.353,71.649 307.490,74.132 306.798 C 76.615 306.106,79.427 305.308,80.382 305.025 C 81.337 304.741,82.743 304.370,83.507 304.198 C 84.271 304.027,86.615 303.398,88.715 302.800 C 93.591 301.413,94.978 301.029,100.694 299.485 C 106.667 297.871,109.365 297.135,113.870 295.888 C 118.402 294.634,118.662 294.695,123.949 298.259 C 131.533 303.371,133.816 304.743,140.321 308.097 C 145.927 310.988,159.935 317.014,161.048 317.014 C 161.220 317.014,162.985 317.536,164.969 318.173 C 171.758 320.356,184.292 323.264,186.908 323.264 C 187.724 323.264,190.184 323.607,192.373 324.027 C 198.443 325.191,222.220 325.195,227.882 324.033 C 229.945 323.610,232.348 323.264,233.222 323.264 C 235.694 323.264,249.368 320.057,256.651 317.769 C 260.650 316.512,267.706 313.892,270.313 312.696 C 279.988 308.254,287.796 304.015,293.924 299.879 C 297.189 297.675,305.568 291.491,306.776 290.393 C 307.161 290.043,308.411 288.992,309.554 288.058 C 331.489 270.118,351.076 238.731,357.677 210.938 C 358.267 208.455,359.193 204.549,359.734 202.257 C 360.276 199.965,360.815 196.840,360.932 195.313 C 361.050 193.785,361.411 191.363,361.736 189.931 C 362.619 186.035,362.615 158.758,361.730 154.793 C 361.403 153.324,361.042 151.058,360.930 149.759 C 358.309 119.421,336.473 79.657,310.069 57.140 C 307.145 54.646,296.678 46.528,296.387 46.528 C 296.304 46.528,295.013 45.689,293.517 44.664 C 288.243 41.050,278.922 36.001,270.313 32.097 C 264.351 29.394,249.081 24.409,244.792 23.766 C 243.932 23.637,241.432 23.099,239.236 22.569 C 237.040 22.040,233.837 21.508,232.118 21.386 C 230.399 21.265,228.056 20.926,226.910 20.633 C 224.519 20.020,203.888 19.691,197.743 20.167 M227.083 33.278 C 227.752 33.506,229.861 33.857,231.771 34.058 C 233.681 34.260,237.040 34.869,239.236 35.412 C 241.432 35.956,243.932 36.551,244.792 36.735 C 248.883 37.612,261.861 42.020,264.578 43.457 C 265.244 43.809,265.904 44.097,266.045 44.097 C 266.425 44.097,274.375 48.002,277.778 49.859 C 280.983 51.608,288.510 56.339,290.896 58.103 C 314.007 75.190,329.274 94.397,339.809 119.638 C 343.369 128.169,347.469 142.761,348.278 149.784 C 348.479 151.526,348.910 154.123,349.235 155.556 C 350.111 159.413,350.114 185.356,349.239 189.236 C 348.916 190.668,348.551 192.856,348.428 194.097 C 347.984 198.571,345.411 209.200,343.018 216.446 C 330.973 252.925,302.377 284.498,267.188 300.170 C 266.042 300.680,264.792 301.238,264.410 301.408 C 256.299 305.038,239.114 309.990,232.465 310.614 C 231.128 310.740,229.097 311.082,227.951 311.374 C 224.265 312.316,198.238 312.422,193.642 311.513 C 191.696 311.129,189.010 310.715,187.674 310.593 C 183.758 310.238,173.444 307.704,166.840 305.475 C 160.026 303.174,159.396 302.936,154.688 300.880 C 145.564 296.896,138.463 292.841,128.734 286.059 C 121.357 280.917,120.436 280.739,112.847 282.993 C 111.033 283.532,107.986 284.386,106.076 284.891 C 104.167 285.396,100.651 286.353,98.264 287.019 C 95.877 287.685,92.986 288.473,91.840 288.770 C 90.694 289.067,88.741 289.595,87.500 289.944 C 86.259 290.293,83.915 290.910,82.292 291.314 C 80.668 291.718,78.683 292.294,77.880 292.594 C 77.075 292.894,76.033 293.041,75.559 292.923 C 73.893 292.504,73.964 291.864,76.579 283.681 C 77.220 281.675,78.055 279.019,78.434 277.778 C 79.055 275.747,82.404 265.216,87.163 250.333 C 89.415 243.293,89.490 243.943,85.494 235.861 C 81.451 227.681,80.618 225.719,77.565 217.188 C 76.403 213.941,74.322 206.806,73.969 204.861 C 73.813 204.002,73.360 202.075,72.961 200.579 C 72.562 199.084,71.996 195.959,71.704 193.635 C 71.411 191.311,71.008 188.785,70.808 188.021 C 70.370 186.341,70.076 163.006,70.450 159.549 C 71.588 149.022,73.951 138.205,77.314 128.125 C 90.309 89.182,120.479 57.283,158.530 42.253 C 168.675 38.246,181.256 34.788,188.515 34.010 C 190.315 33.818,192.425 33.512,193.203 33.332 C 193.981 33.151,195.009 32.937,195.486 32.856 C 197.587 32.497,225.904 32.876,227.083 33.278 M209.288 36.703 C 209.718 36.786,210.421 36.786,210.851 36.703 C 211.280 36.621,210.929 36.553,210.069 36.553 C 209.210 36.553,208.859 36.621,209.288 36.703 M122.778 133.350 C 119.862 133.803,119.834 134.173,122.743 133.810 C 125.728 133.438,133.176 133.414,135.764 133.769 C 137.338 133.984,137.521 133.960,136.806 133.630 C 135.705 133.124,125.543 132.920,122.778 133.350 M243.133 134.221 C 242.221 134.859,242.074 136.967,242.836 138.472 C 243.096 138.988,243.421 140.035,243.556 140.799 C 243.691 141.563,244.004 142.502,244.251 142.887 C 244.498 143.272,244.818 144.131,244.961 144.797 C 245.234 146.068,246.143 148.009,246.167 147.372 C 246.174 147.168,245.399 144.725,244.444 141.942 C 241.707 133.964,241.518 134.272,249.306 134.005 L 255.035 133.808 249.470 133.744 C 244.920 133.692,243.764 133.779,243.133 134.221 M277.257 134.012 C 276.284 134.414,272.569 138.967,272.569 139.757 C 272.569 139.856,271.992 140.756,271.286 141.757 C 268.127 146.234,264.914 151.141,265.051 151.278 C 265.200 151.427,265.720 150.681,272.237 140.972 C 277.008 133.865,276.487 134.226,282.180 134.087 C 288.135 133.942,289.193 134.305,288.909 136.398 C 288.823 137.031,281.254 148.289,278.934 151.234 C 278.776 151.436,278.490 151.849,278.299 152.154 C 277.959 152.695,277.195 153.793,274.481 157.639 C 273.740 158.689,272.499 160.486,271.723 161.632 C 270.948 162.778,270.230 163.793,270.127 163.889 C 268.871 165.060,267.237 168.387,267.157 169.936 C 267.107 170.907,267.137 171.233,267.224 170.660 C 267.489 168.919,268.469 166.965,270.391 164.341 C 271.398 162.967,272.222 161.743,272.222 161.622 C 272.222 161.501,272.769 160.734,273.438 159.919 C 274.106 159.103,274.653 158.322,274.653 158.182 C 274.653 158.043,275.161 157.278,275.781 156.482 C 276.402 155.686,277.066 154.769,277.257 154.445 C 277.748 153.611,279.370 151.285,281.503 148.354 C 282.510 146.971,283.333 145.768,283.333 145.680 C 283.333 145.496,284.767 143.429,286.960 140.451 C 287.804 139.306,288.506 138.240,288.518 138.083 C 288.531 137.926,288.776 137.563,289.063 137.277 C 290.036 136.303,289.681 134.805,288.304 134.080 C 287.426 133.618,278.345 133.562,277.257 134.012 M117.300 134.274 C 116.260 134.433,115.171 135.417,116.034 135.417 C 116.306 135.417,116.687 135.257,116.883 135.062 C 117.078 134.867,117.929 134.571,118.775 134.406 C 120.382 134.090,119.194 133.984,117.300 134.274 M139.035 134.417 C 139.784 134.592,140.608 134.912,140.867 135.126 C 141.125 135.340,141.435 135.417,141.555 135.297 C 141.860 134.992,139.429 134.020,138.466 134.063 C 137.973 134.084,138.188 134.218,139.035 134.417 M256.709 135.330 C 257.164 136.240,257.623 137.658,260.659 147.518 C 262.151 152.364,262.863 153.293,264.308 152.279 L 265.104 151.720 264.063 151.911 C 262.694 152.162,262.365 151.871,261.903 150.000 C 261.691 149.141,261.123 147.266,260.640 145.833 C 259.126 141.338,258.648 139.803,258.274 138.238 C 257.941 136.843,256.731 134.375,256.380 134.375 C 256.299 134.375,256.447 134.805,256.709 135.330 M113.493 136.100 C 112.428 136.987,112.869 136.994,114.315 136.112 C 114.992 135.700,115.221 135.419,114.882 135.418 C 114.569 135.417,113.944 135.724,113.493 136.100 M142.694 136.043 C 144.525 137.307,145.604 138.385,146.560 139.907 C 147.108 140.780,147.559 141.305,147.563 141.074 C 147.583 139.778,143.402 135.376,142.207 135.435 C 142.005 135.445,142.224 135.718,142.694 136.043 M110.345 138.211 C 105.120 142.690,102.589 154.827,106.077 158.681 C 106.363 158.997,106.597 159.385,106.597 159.543 C 106.597 160.107,111.018 163.889,111.677 163.889 C 111.813 163.889,112.171 164.111,112.473 164.383 C 112.774 164.654,113.490 164.982,114.063 165.111 C 115.002 165.322,114.968 165.270,113.715 164.580 C 106.595 160.659,105.368 158.762,105.410 151.736 C 105.452 144.595,106.795 141.612,111.806 137.535 C 112.283 137.146,112.517 136.824,112.326 136.819 C 112.135 136.814,111.244 137.440,110.345 138.211 M147.756 142.361 C 148.314 144.395,148.324 148.124,147.776 150.008 C 146.689 153.749,145.281 154.388,138.771 154.097 C 134.106 153.888,133.617 153.615,133.730 151.280 C 133.882 148.152,131.902 145.081,129.782 145.154 C 129.539 145.163,129.887 145.459,130.556 145.813 C 132.699 146.946,133.135 147.702,133.278 150.531 C 133.468 154.289,133.558 154.340,139.940 154.340 C 145.846 154.340,146.439 154.116,147.809 151.358 C 148.794 149.376,148.963 143.275,148.065 142.167 C 147.538 141.518,147.527 141.525,147.756 142.361 M125.600 145.042 C 126.216 145.119,127.310 145.120,128.030 145.045 C 128.751 144.970,128.247 144.907,126.910 144.906 C 125.573 144.904,124.983 144.966,125.600 145.042 M122.157 145.846 C 119.429 147.287,118.760 151.188,120.898 153.185 C 121.904 154.125,124.292 155.556,124.855 155.556 C 125.427 155.556,124.179 154.557,123.346 154.348 C 119.304 153.334,119.009 148.021,122.883 146.003 C 123.761 145.545,124.245 145.171,123.958 145.170 C 123.672 145.170,122.861 145.474,122.157 145.846 M246.193 148.264 C 246.189 148.550,246.418 149.232,246.704 149.779 C 246.989 150.326,247.222 151.000,247.222 151.277 C 247.222 151.554,247.509 152.513,247.860 153.408 C 248.212 154.303,248.859 156.128,249.299 157.465 C 250.099 159.896,251.254 162.371,250.920 160.938 C 250.220 157.939,246.211 147.187,246.193 148.264 M166.406 151.031 C 165.186 151.555,165.487 151.847,167.000 151.605 C 168.799 151.317,177.165 151.290,179.167 151.565 C 180.513 151.750,180.633 151.719,180.035 151.342 C 179.171 150.797,167.566 150.532,166.406 151.031 M296.528 151.212 C 295.710 151.711,295.790 151.728,297.896 151.513 C 300.899 151.206,306.331 151.198,308.681 151.498 C 310.280 151.702,310.477 151.671,309.896 151.310 C 308.774 150.612,297.643 150.531,296.528 151.212 M162.674 152.431 C 161.910 152.800,161.083 153.107,160.836 153.113 C 159.620 153.145,154.167 158.242,154.167 159.347 C 154.167 159.553,154.029 159.722,153.860 159.722 C 153.533 159.722,151.720 165.097,151.752 165.972 C 151.762 166.259,152.177 165.243,152.674 163.715 C 154.361 158.523,157.689 154.671,161.806 153.145 C 165.057 151.940,165.427 151.766,164.757 151.763 C 164.375 151.761,163.438 152.062,162.674 152.431 M182.889 152.795 C 184.077 153.361,185.678 154.480,186.448 155.281 C 187.218 156.082,187.847 156.574,187.847 156.376 C 187.847 155.379,182.547 151.706,181.175 151.751 C 180.930 151.759,181.701 152.229,182.889 152.795 M199.565 152.140 C 198.613 152.488,198.022 153.703,198.376 154.586 C 198.475 154.833,198.569 154.707,198.584 154.307 C 198.647 152.629,199.695 152.271,205.157 152.065 L 210.243 151.873 205.382 151.832 C 202.708 151.809,200.091 151.948,199.565 152.140 M223.545 152.186 C 221.837 152.951,221.155 154.251,221.006 157.024 L 220.871 159.549 221.142 157.425 C 221.715 152.945,223.007 152.083,229.152 152.083 C 234.903 152.083,235.574 152.881,234.343 158.253 C 233.961 159.920,233.489 162.769,233.294 164.583 C 233.099 166.398,232.644 168.898,232.282 170.139 C 231.921 171.380,231.462 173.802,231.263 175.521 C 231.064 177.240,230.589 179.945,230.208 181.532 C 229.826 183.120,229.535 184.839,229.561 185.352 C 229.608 186.283,229.609 186.283,229.759 185.417 C 229.841 184.939,230.274 182.986,230.722 181.076 C 231.169 179.167,231.628 176.510,231.742 175.174 C 231.855 173.837,232.196 172.040,232.499 171.181 C 232.802 170.321,233.178 168.263,233.336 166.606 C 233.657 163.223,234.646 158.331,235.111 157.830 C 236.060 156.805,235.083 152.834,233.700 152.094 C 232.764 151.593,224.705 151.666,223.545 152.186 M293.576 151.992 C 292.724 152.207,291.364 153.125,291.899 153.125 C 292.111 153.125,292.966 152.816,293.799 152.438 C 295.226 151.791,295.131 151.600,293.576 151.992 M312.282 152.451 C 313.016 152.844,313.692 153.090,313.785 152.998 C 313.995 152.788,312.002 151.736,311.394 151.736 C 311.149 151.736,311.548 152.058,312.282 152.451 M210.913 152.629 C 211.600 153.317,211.608 155.703,210.931 158.507 C 210.654 159.653,210.425 161.294,210.422 162.154 C 210.419 163.014,210.099 164.811,209.710 166.147 C 207.185 174.829,209.035 180.235,213.986 178.646 L 215.451 178.176 213.992 178.366 C 211.979 178.628,210.319 178.257,209.802 177.429 C 209.059 176.239,208.897 170.936,209.537 168.750 C 209.845 167.700,210.256 165.668,210.452 164.236 C 210.647 162.804,211.031 160.456,211.306 159.020 C 212.133 154.693,211.894 152.083,210.670 152.083 C 210.503 152.083,210.613 152.329,210.913 152.629 M289.401 153.936 C 287.385 155.378,286.615 156.087,285.377 157.639 C 283.406 160.110,281.664 164.540,281.448 167.630 C 281.385 168.533,281.406 168.880,281.495 168.403 C 282.803 161.347,285.293 157.139,289.931 154.146 C 290.790 153.592,291.259 153.149,290.972 153.161 C 290.686 153.174,289.979 153.523,289.401 153.936 M315.128 153.875 C 316.636 154.947,318.109 157.100,318.996 159.530 C 319.550 161.047,319.767 161.374,319.778 160.706 C 319.808 158.702,315.970 153.125,314.561 153.125 C 314.292 153.125,314.547 153.463,315.128 153.875 M127.083 156.250 C 127.943 156.611,128.977 156.914,129.383 156.925 C 130.258 156.948,134.598 158.341,136.806 159.308 C 139.081 160.304,141.202 161.966,142.442 163.725 C 143.040 164.573,143.600 165.196,143.687 165.109 C 143.966 164.830,140.840 161.234,139.583 160.390 C 137.229 158.809,136.528 158.548,128.094 156.115 C 125.549 155.381,125.141 155.435,127.083 156.250 M197.434 158.814 C 197.099 160.496,196.890 161.936,196.967 162.013 C 197.198 162.244,198.369 156.738,198.198 156.226 C 198.112 155.967,197.768 157.131,197.434 158.814 M188.375 157.986 C 189.375 159.897,189.462 164.116,188.578 167.823 C 188.176 169.509,187.869 171.462,187.895 172.163 C 187.928 173.071,187.983 173.188,188.084 172.569 C 188.844 167.930,189.891 163.889,190.333 163.889 C 190.494 163.889,190.625 163.420,190.625 162.847 C 190.625 162.274,190.486 161.806,190.315 161.806 C 190.145 161.806,189.723 160.861,189.377 159.706 C 189.031 158.552,188.521 157.419,188.244 157.189 C 187.884 156.891,187.922 157.119,188.375 157.986 M219.844 163.394 C 219.395 165.480,218.884 168.594,218.707 170.313 C 218.352 173.767,217.688 175.706,216.343 177.216 C 215.814 177.809,215.664 178.151,215.972 178.056 C 217.368 177.628,218.393 175.257,218.946 171.181 C 219.244 168.984,219.802 165.826,220.186 164.162 C 220.571 162.499,220.834 160.791,220.772 160.369 C 220.710 159.946,220.293 161.307,219.844 163.394 M168.741 162.587 C 167.123 163.406,165.078 165.899,165.355 166.718 C 165.450 167.001,165.758 166.705,166.130 165.972 C 168.310 161.673,172.709 160.983,174.639 164.638 L 175.493 166.255 174.844 169.499 C 174.487 171.283,173.986 173.051,173.730 173.428 C 173.473 173.805,173.264 174.420,173.264 174.795 C 173.264 176.542,170.073 179.167,167.950 179.167 C 166.580 179.167,164.271 177.164,164.248 175.955 C 164.241 175.621,164.084 175.347,163.897 175.347 C 163.451 175.347,164.098 177.049,164.867 177.899 C 167.498 180.806,171.946 179.435,173.711 175.174 C 177.435 166.180,174.806 159.520,168.741 162.587 M251.057 162.505 C 251.049 162.985,251.382 164.001,251.798 164.762 C 252.736 166.477,252.811 171.160,251.939 173.568 C 251.636 174.404,251.400 175.419,251.413 175.825 C 251.459 177.195,252.407 173.983,252.839 170.995 C 253.275 167.978,253.111 166.915,251.608 163.021 C 251.164 161.870,251.070 161.782,251.057 162.505 M298.958 162.482 C 296.844 163.606,294.792 166.924,294.792 169.222 C 294.791 170.525,296.046 168.385,296.131 166.937 C 296.365 162.984,301.787 160.892,304.324 163.776 C 304.798 164.316,305.191 164.589,305.197 164.383 C 305.210 163.938,303.948 162.742,302.887 162.196 C 301.797 161.635,300.356 161.739,298.958 162.482 M196.320 163.215 C 196.111 163.681,195.926 165.234,195.909 166.667 L 195.878 169.271 196.385 166.319 C 196.946 163.059,196.921 161.874,196.320 163.215 M319.021 166.374 C 318.693 167.776,318.268 170.095,318.078 171.528 C 317.888 172.960,317.641 174.679,317.529 175.347 L 317.324 176.563 317.808 175.521 C 318.074 174.948,318.397 173.213,318.525 171.665 C 318.653 170.117,319.002 168.135,319.300 167.260 C 319.598 166.385,319.792 165.254,319.730 164.747 C 319.653 164.114,319.431 164.625,319.021 166.374 M305.322 167.188 C 305.324 168.524,305.387 169.029,305.462 168.308 C 305.537 167.588,305.536 166.494,305.459 165.878 C 305.382 165.261,305.321 165.851,305.322 167.188 M116.184 165.808 C 116.778 166.069,117.716 166.375,118.268 166.488 C 118.819 166.602,118.490 166.376,117.535 165.987 C 115.620 165.206,114.461 165.052,116.184 165.808 M143.954 166.319 C 144.433 168.021,144.518 175.058,144.079 176.699 C 142.511 182.567,139.687 185.713,133.681 188.282 C 132.242 188.898,131.835 189.172,132.558 189.039 C 133.801 188.811,137.787 186.829,139.133 185.771 C 140.780 184.475,142.534 181.813,144.285 177.951 C 145.097 176.161,145.047 167.744,144.217 166.320 L 143.710 165.451 143.954 166.319 M119.594 166.975 C 119.698 167.144,120.366 167.392,121.078 167.525 C 121.790 167.659,122.768 167.969,123.252 168.215 C 124.743 168.972,126.116 169.263,124.879 168.560 C 123.052 167.521,119.221 166.372,119.594 166.975 M151.108 167.829 C 150.881 168.458,150.694 169.722,150.694 170.637 C 150.694 171.552,150.366 173.650,149.965 175.300 C 149.163 178.594,149.222 181.065,150.142 182.813 C 150.443 183.385,150.691 184.133,150.692 184.473 C 150.693 184.813,150.929 185.181,151.215 185.291 C 151.502 185.401,151.736 185.638,151.736 185.818 C 151.736 186.232,153.531 187.826,153.993 187.822 C 154.184 187.820,153.865 187.396,153.284 186.878 C 149.649 183.641,149.360 180.877,151.431 169.167 C 151.867 166.703,151.726 166.119,151.108 167.829 M164.983 168.446 C 164.954 168.947,164.720 169.963,164.462 170.703 C 163.985 172.074,163.386 175.279,163.662 174.987 C 164.080 174.545,165.303 169.295,165.178 168.477 L 165.035 167.535 164.983 168.446 M127.257 170.305 C 128.021 170.963,128.738 171.508,128.851 171.515 C 128.963 171.522,129.266 172.165,129.523 172.944 C 130.157 174.866,129.301 176.614,127.565 176.940 C 126.308 177.176,125.177 178.125,126.153 178.125 C 130.280 178.125,131.363 172.978,127.825 170.176 C 125.975 168.711,125.526 168.813,127.257 170.305 M195.189 170.803 C 194.937 171.646,194.685 173.131,194.630 174.102 C 194.575 175.073,194.596 175.399,194.676 174.826 C 194.757 174.253,195.062 173.045,195.354 172.140 C 195.647 171.236,195.833 170.220,195.768 169.883 C 195.698 169.525,195.458 169.908,195.189 170.803 M304.601 170.833 C 304.381 171.502,304.111 172.674,304.001 173.438 C 303.833 174.601,303.915 174.488,304.504 172.743 C 304.891 171.597,305.160 170.425,305.103 170.139 C 305.046 169.852,304.820 170.165,304.601 170.833 M294.157 171.903 C 292.860 177.518,296.093 180.963,300.608 178.777 C 301.993 178.107,304.183 175.595,303.755 175.167 C 303.663 175.075,303.211 175.582,302.749 176.293 C 299.341 181.541,293.330 179.020,294.440 172.809 C 294.940 170.012,294.740 169.374,294.157 171.903 M103.842 170.860 C 102.063 171.103,100.342 172.797,100.355 174.292 C 100.361 175.046,100.457 174.966,101.012 173.744 C 102.009 171.548,102.778 171.181,106.385 171.181 C 108.093 171.181,109.373 171.063,109.230 170.920 C 108.914 170.604,105.956 170.572,103.842 170.860 M280.429 173.611 C 279.188 179.962,279.783 184.022,282.322 186.528 C 283.190 187.385,286.280 189.236,286.841 189.236 C 287.105 189.236,286.572 188.837,285.656 188.350 C 280.765 185.746,279.183 181.209,280.755 174.298 C 281.055 172.976,281.250 171.539,281.188 171.104 C 281.125 170.669,280.784 171.797,280.429 173.611 M111.458 171.069 C 113.961 171.327,114.056 171.403,115.258 174.139 C 116.415 176.770,118.310 178.478,119.557 178.014 C 119.782 177.930,119.223 177.536,118.316 177.138 C 117.409 176.739,116.667 176.367,116.667 176.310 C 116.667 173.701,114.190 170.820,112.005 170.889 C 110.687 170.930,110.549 170.976,111.458 171.069 M266.224 174.479 C 265.884 175.816,265.463 178.003,265.287 179.340 C 265.111 180.677,264.870 182.396,264.752 183.160 C 264.569 184.350,264.599 184.451,264.966 183.869 C 265.201 183.495,265.517 181.720,265.669 179.924 C 265.820 178.129,266.198 175.994,266.509 175.180 C 266.820 174.367,267.021 173.329,266.957 172.875 C 266.881 172.337,266.625 172.896,266.224 174.479 M187.438 175.521 C 187.169 176.797,186.229 179.472,185.761 180.290 C 185.336 181.035,185.328 181.250,185.726 181.250 C 185.897 181.250,186.142 180.826,186.272 180.307 C 186.403 179.789,186.819 178.683,187.199 177.851 C 187.578 177.018,187.836 175.919,187.773 175.408 L 187.657 174.479 187.438 175.521 M100.000 176.563 C 100.000 177.040,100.135 177.431,100.299 177.431 C 100.464 177.431,100.523 177.040,100.432 176.563 C 100.341 176.085,100.206 175.694,100.133 175.694 C 100.060 175.694,100.000 176.085,100.000 176.563 M251.136 178.125 C 251.136 178.984,251.204 179.336,251.287 178.906 C 251.369 178.477,251.369 177.773,251.287 177.344 C 251.204 176.914,251.136 177.266,251.136 178.125 M316.851 177.685 C 315.728 182.159,312.817 185.731,308.554 187.868 C 305.355 189.470,305.597 189.718,308.867 188.188 C 312.776 186.361,316.435 181.800,317.246 177.744 C 317.502 176.466,317.169 176.416,316.851 177.685 M100.395 178.939 C 100.369 179.674,100.571 180.690,100.844 181.196 C 101.118 181.703,101.703 182.881,102.144 183.813 C 103.150 185.938,107.804 189.534,108.563 188.775 C 108.642 188.695,107.989 188.293,107.111 187.880 C 103.925 186.383,101.279 182.566,100.588 178.472 C 100.488 177.876,100.427 178.023,100.395 178.939 M121.433 178.376 C 122.050 178.452,123.143 178.454,123.864 178.378 C 124.584 178.303,124.080 178.240,122.743 178.239 C 121.406 178.237,120.817 178.299,121.433 178.376 M194.211 180.729 C 194.213 182.066,194.275 182.570,194.351 181.850 C 194.426 181.129,194.425 180.036,194.348 179.419 C 194.271 178.803,194.210 179.392,194.211 180.729 M250.414 182.292 C 250.171 183.342,249.918 185.061,249.853 186.111 C 249.787 187.161,249.797 187.630,249.875 187.153 C 249.953 186.675,250.261 185.242,250.560 183.968 C 250.859 182.694,251.048 181.366,250.980 181.017 C 250.912 180.668,250.657 181.241,250.414 182.292 M184.028 183.350 C 183.359 184.288,181.973 185.684,180.946 186.452 C 179.919 187.219,179.243 187.847,179.443 187.847 C 180.521 187.847,185.647 182.780,185.367 181.992 C 185.299 181.801,184.696 182.412,184.028 183.350 M194.599 184.792 C 194.708 185.769,195.164 186.502,196.503 187.856 C 198.674 190.050,198.674 190.051,196.441 192.248 C 193.001 195.632,192.278 197.160,192.225 201.152 C 192.136 207.899,196.306 211.243,205.382 211.699 C 209.587 211.911,214.584 210.980,216.279 209.668 C 216.735 209.316,217.321 209.028,217.582 209.028 C 217.842 209.028,218.056 208.882,218.056 208.704 C 218.056 208.526,218.360 208.284,218.732 208.166 C 219.534 207.911,224.306 203.217,224.306 202.682 C 224.306 202.478,224.522 202.065,224.788 201.763 C 225.053 201.462,225.691 200.356,226.205 199.306 C 226.720 198.255,227.273 197.142,227.435 196.831 C 227.598 196.520,227.840 195.661,227.974 194.921 C 228.108 194.182,228.429 193.159,228.687 192.648 C 228.946 192.138,229.230 190.575,229.319 189.176 C 229.466 186.857,229.455 186.801,229.196 188.542 C 229.039 189.592,228.649 191.311,228.329 192.361 C 228.009 193.411,227.582 194.818,227.382 195.486 C 223.863 207.198,212.812 213.543,200.795 210.749 C 191.583 208.607,189.559 198.516,197.059 192.122 C 198.927 190.530,199.021 189.676,197.483 188.295 C 195.682 186.678,195.077 185.870,194.757 184.650 L 194.457 183.507 194.599 184.792 M264.081 186.307 C 263.950 187.006,263.470 187.951,263.014 188.407 C 262.558 188.863,262.322 189.236,262.491 189.236 C 263.314 189.236,265.036 185.753,264.484 185.202 C 264.394 185.111,264.212 185.609,264.081 186.307 M154.805 188.300 C 156.336 190.145,173.519 191.270,175.070 189.627 C 175.449 189.225,175.355 189.189,174.479 189.400 C 170.005 190.476,157.575 189.793,155.691 188.366 C 154.865 187.741,154.306 187.699,154.805 188.300 M176.910 188.561 C 176.146 188.922,175.721 189.222,175.966 189.227 C 176.540 189.239,178.819 188.289,178.819 188.039 C 178.819 187.739,178.407 187.852,176.910 188.561 M212.321 189.200 C 205.632 193.037,203.453 199.520,208.681 200.031 C 211.747 200.331,214.111 197.433,215.126 192.128 C 215.898 188.095,215.313 187.484,212.321 189.200 M214.681 191.402 C 214.640 192.688,214.385 194.094,214.115 194.527 C 213.845 194.959,213.532 195.711,213.420 196.199 C 212.692 199.355,207.812 200.982,206.743 198.425 C 206.199 197.123,206.516 194.934,207.403 193.872 C 208.297 192.800,209.679 191.466,210.408 190.972 C 210.830 190.686,211.668 190.094,212.270 189.657 C 214.199 188.257,214.770 188.670,214.681 191.402 M110.590 189.656 C 111.612 190.316,130.326 190.303,130.972 189.642 C 131.348 189.257,131.131 189.228,129.688 189.468 C 127.479 189.836,113.529 189.846,111.458 189.482 C 110.114 189.245,109.993 189.269,110.590 189.656 M251.563 189.583 C 251.681 189.774,252.283 189.931,252.902 189.931 C 253.521 189.931,254.199 190.101,254.407 190.310 C 254.682 190.584,254.983 190.584,255.495 190.310 C 256.388 189.832,258.102 189.809,257.813 190.278 C 257.566 190.676,258.435 190.755,258.820 190.370 C 258.961 190.229,259.547 190.090,260.124 190.061 C 260.700 190.032,261.346 189.835,261.558 189.622 C 261.842 189.339,260.536 189.236,256.646 189.236 C 253.202 189.236,251.423 189.358,251.563 189.583 M288.306 189.765 C 289.572 190.490,303.873 190.402,305.035 189.662 C 305.625 189.285,305.468 189.259,303.993 189.488 C 301.717 189.841,290.497 189.835,288.715 189.480 L 287.326 189.204 288.306 189.765 M207.383 308.235 C 207.911 308.315,208.692 308.313,209.119 308.231 C 209.546 308.148,209.115 308.083,208.160 308.085 C 207.205 308.088,206.855 308.155,207.383 308.235 M211.897 308.235 C 212.425 308.315,213.206 308.313,213.633 308.231 C 214.060 308.148,213.628 308.083,212.674 308.085 C 211.719 308.088,211.369 308.155,211.897 308.235 M197.483 328.717 C 197.912 328.800,198.615 328.800,199.045 328.717 C 199.475 328.635,199.123 328.567,198.264 328.567 C 197.405 328.567,197.053 328.635,197.483 328.717 M221.445 328.718 C 221.877 328.801,222.502 328.798,222.834 328.711 C 223.166 328.624,222.813 328.556,222.049 328.560 C 221.285 328.564,221.013 328.635,221.445 328.718 " stroke="none" fill="#46acd4" fill-rule="evenodd"></path><path id="path2" d="M200.521 15.824 C 198.993 16.072,195.868 16.291,193.576 16.312 C 191.285 16.333,188.785 16.485,188.021 16.650 C 187.257 16.816,185.694 17.134,184.549 17.358 C 182.281 17.800,175.474 19.229,171.875 20.018 C 162.003 22.184,144.362 29.238,133.854 35.222 C 132.326 36.092,130.497 37.117,129.789 37.499 C 119.216 43.204,99.780 59.542,91.579 69.618 C 82.290 81.032,80.535 83.428,75.814 91.146 C 73.822 94.403,69.444 102.278,69.444 102.605 C 69.444 102.686,68.652 104.360,67.683 106.325 C 66.715 108.289,65.223 111.693,64.369 113.889 C 63.515 116.085,62.650 118.273,62.448 118.750 C 61.512 120.961,58.127 132.354,57.806 134.375 C 57.670 135.234,57.427 136.187,57.267 136.492 C 57.108 136.797,56.820 137.969,56.628 139.096 C 56.101 142.190,55.245 146.452,54.682 148.785 C 54.405 149.931,54.023 153.681,53.834 157.118 C 53.644 160.556,53.307 165.399,53.085 167.882 C 52.772 171.380,52.777 173.529,53.110 177.431 C 53.346 180.200,53.739 185.122,53.984 188.368 C 54.520 195.461,55.583 201.754,57.327 208.160 C 57.691 209.497,57.988 210.837,57.987 211.139 C 57.986 211.756,59.175 215.850,59.895 217.708 C 60.154 218.377,60.465 219.392,60.585 219.965 C 61.298 223.368,64.891 232.376,68.618 240.104 C 70.688 244.396,71.181 246.835,70.214 248.000 C 69.996 248.262,69.595 249.328,69.323 250.367 C 68.790 252.404,66.887 258.437,66.154 260.417 C 65.737 261.541,64.927 264.072,61.600 274.653 C 60.909 276.849,59.914 279.974,59.389 281.597 C 58.863 283.220,57.995 285.955,57.461 287.674 C 56.926 289.392,55.986 292.361,55.371 294.271 C 52.427 303.419,52.553 306.124,56.110 310.061 C 59.763 314.104,63.473 314.503,72.569 311.833 C 80.252 309.577,84.736 308.333,85.183 308.333 C 85.438 308.333,86.650 308.038,87.876 307.677 C 89.101 307.316,91.120 306.753,92.361 306.426 C 93.602 306.099,95.634 305.536,96.875 305.176 C 99.025 304.551,102.064 303.718,106.250 302.605 C 107.300 302.326,110.134 301.548,112.548 300.875 C 118.165 299.310,117.625 299.237,122.080 302.170 C 138.290 312.844,153.099 319.695,169.097 323.922 C 170.530 324.300,172.873 324.932,174.306 325.327 C 175.738 325.721,177.222 326.041,177.604 326.038 C 178.274 326.033,180.101 326.396,186.522 327.809 C 188.605 328.267,190.914 328.474,193.988 328.479 C 196.435 328.483,200.312 328.713,202.604 328.989 C 207.989 329.639,212.721 329.641,217.895 328.996 C 220.180 328.711,223.972 328.477,226.324 328.475 C 229.209 328.473,231.636 328.254,233.789 327.801 C 235.544 327.432,238.464 326.870,240.278 326.554 C 248.821 325.062,262.246 320.883,272.404 316.555 C 284.357 311.461,300.838 301.425,309.518 293.954 C 320.870 284.183,328.084 276.600,336.006 266.111 C 348.204 249.959,358.206 228.835,362.543 210.069 C 363.094 207.682,363.708 205.104,363.906 204.340 C 364.105 203.576,364.483 201.427,364.746 199.564 C 365.010 197.700,365.393 195.668,365.598 195.046 C 365.803 194.425,366.120 191.418,366.302 188.365 C 366.484 185.311,366.825 180.494,367.059 177.661 C 367.396 173.584,367.396 171.484,367.056 167.592 C 366.821 164.887,366.484 160.031,366.308 156.802 C 366.133 153.572,365.824 150.430,365.623 149.820 C 365.422 149.210,365.038 147.321,364.771 145.623 C 363.953 140.419,363.553 138.588,361.785 131.944 C 360.940 128.768,358.191 120.063,357.674 118.924 C 357.501 118.542,357.009 117.292,356.580 116.146 C 356.152 115.000,355.599 113.594,355.353 113.021 C 355.106 112.448,354.487 110.964,353.976 109.722 C 337.389 69.396,298.959 35.220,255.382 22.041 C 253.663 21.521,251.587 20.881,250.769 20.617 C 249.951 20.354,248.971 20.139,248.592 20.139 C 248.212 20.139,246.773 19.834,245.392 19.462 C 244.011 19.089,241.554 18.534,239.931 18.227 C 238.307 17.921,235.544 17.366,233.789 16.995 C 231.676 16.548,229.213 16.317,226.497 16.313 C 224.241 16.310,220.911 16.078,219.097 15.799 C 215.035 15.173,204.454 15.187,200.521 15.824 M226.910 20.633 C 228.056 20.926,230.399 21.265,232.118 21.386 C 233.837 21.508,237.040 22.040,239.236 22.569 C 241.432 23.099,243.932 23.637,244.792 23.766 C 249.081 24.409,264.351 29.394,270.313 32.097 C 278.922 36.001,288.243 41.050,293.517 44.664 C 295.013 45.689,296.304 46.528,296.387 46.528 C 296.678 46.528,307.145 54.646,310.069 57.140 C 336.473 79.657,358.309 119.421,360.930 149.759 C 361.042 151.058,361.403 153.324,361.730 154.793 C 362.615 158.758,362.619 186.035,361.736 189.931 C 361.411 191.363,361.050 193.785,360.932 195.313 C 360.815 196.840,360.276 199.965,359.734 202.257 C 359.193 204.549,358.267 208.455,357.677 210.938 C 351.076 238.731,331.489 270.118,309.554 288.058 C 308.411 288.992,307.161 290.043,306.776 290.393 C 305.568 291.491,297.189 297.675,293.924 299.879 C 287.796 304.015,279.988 308.254,270.313 312.696 C 267.706 313.892,260.650 316.512,256.651 317.769 C 249.368 320.057,235.694 323.264,233.222 323.264 C 232.348 323.264,229.945 323.610,227.882 324.033 C 222.220 325.195,198.443 325.191,192.373 324.027 C 190.184 323.607,187.724 323.264,186.908 323.264 C 184.292 323.264,171.758 320.356,164.969 318.173 C 162.985 317.536,161.220 317.014,161.048 317.014 C 159.935 317.014,145.927 310.988,140.321 308.097 C 133.816 304.743,131.533 303.371,123.949 298.259 C 118.662 294.695,118.402 294.634,113.870 295.888 C 109.365 297.135,106.667 297.871,100.694 299.485 C 94.978 301.029,93.591 301.413,88.715 302.800 C 86.615 303.398,84.271 304.027,83.507 304.198 C 82.743 304.370,81.337 304.741,80.382 305.025 C 79.427 305.308,76.615 306.106,74.132 306.798 C 71.649 307.490,68.578 308.353,67.307 308.716 C 63.332 309.850,60.923 309.339,58.898 306.933 C 56.962 304.633,57.192 302.425,60.359 292.882 C 61.690 288.872,63.664 282.778,64.746 279.340 C 67.809 269.607,70.447 261.354,72.071 256.424 C 75.997 244.501,75.965 245.647,72.579 238.346 C 68.315 229.153,66.817 225.317,64.318 217.188 C 62.426 211.035,61.887 209.093,61.620 207.465 C 61.495 206.701,60.954 204.123,60.417 201.736 C 59.881 199.349,59.341 196.146,59.217 194.618 C 59.093 193.090,58.731 190.903,58.411 189.757 C 57.522 186.568,57.532 159.438,58.423 155.382 C 58.759 153.854,59.176 151.120,59.350 149.306 C 59.524 147.491,60.051 144.366,60.521 142.361 C 60.991 140.356,61.482 138.090,61.612 137.326 C 61.891 135.682,62.446 133.683,64.308 127.604 C 74.112 95.601,94.016 67.901,121.381 48.174 C 136.177 37.509,156.286 28.240,173.090 24.341 C 181.321 22.431,185.978 21.527,187.616 21.522 C 188.603 21.518,190.503 21.273,191.840 20.976 C 197.337 19.755,222.519 19.509,226.910 20.633 M195.486 32.856 C 195.009 32.937,193.981 33.151,193.203 33.332 C 192.425 33.512,190.315 33.818,188.515 34.010 C 183.731 34.523,174.750 36.670,167.188 39.110 C 134.609 49.621,106.709 72.054,89.500 101.576 C 81.008 116.146,75.741 129.967,72.569 146.007 C 71.767 150.064,70.823 156.096,70.450 159.549 C 70.076 163.006,70.370 186.341,70.808 188.021 C 71.008 188.785,71.411 191.311,71.704 193.635 C 71.996 195.959,72.562 199.084,72.961 200.579 C 73.360 202.075,73.813 204.002,73.969 204.861 C 74.322 206.806,76.403 213.941,77.565 217.188 C 80.618 225.719,81.451 227.681,85.494 235.861 C 89.490 243.943,89.415 243.293,87.163 250.333 C 82.404 265.216,79.055 275.747,78.434 277.778 C 78.055 279.019,77.220 281.675,76.579 283.681 C 73.964 291.864,73.893 292.504,75.559 292.923 C 76.033 293.041,77.075 292.894,77.880 292.594 C 78.683 292.294,80.668 291.718,82.292 291.314 C 83.915 290.910,86.259 290.293,87.500 289.944 C 88.741 289.595,90.694 289.067,91.840 288.770 C 92.986 288.473,95.877 287.685,98.264 287.019 C 100.651 286.353,104.167 285.396,106.076 284.891 C 107.986 284.386,111.033 283.532,112.847 282.993 C 120.436 280.739,121.357 280.917,128.734 286.059 C 138.463 292.841,145.564 296.896,154.688 300.880 C 159.396 302.936,160.026 303.174,166.840 305.475 C 173.444 307.704,183.758 310.238,187.674 310.593 C 189.010 310.715,191.696 311.129,193.642 311.513 C 198.238 312.422,224.265 312.316,227.951 311.374 C 229.097 311.082,231.128 310.740,232.465 310.614 C 239.114 309.990,256.299 305.038,264.410 301.408 C 264.792 301.238,266.042 300.680,267.188 300.170 C 296.201 287.249,321.343 263.037,335.690 234.201 C 341.795 221.931,347.424 204.209,348.428 194.097 C 348.551 192.856,348.916 190.668,349.239 189.236 C 350.114 185.356,350.111 159.413,349.235 155.556 C 348.910 154.123,348.479 151.526,348.278 149.784 C 347.469 142.761,343.369 128.169,339.809 119.638 C 329.274 94.397,314.007 75.190,290.896 58.103 C 288.510 56.339,280.983 51.608,277.778 49.859 C 274.375 48.002,266.425 44.097,266.045 44.097 C 265.904 44.097,265.244 43.809,264.578 43.457 C 261.861 42.020,248.883 37.612,244.792 36.735 C 243.932 36.551,241.432 35.956,239.236 35.412 C 237.040 34.869,233.681 34.260,231.771 34.058 C 229.861 33.857,227.752 33.506,227.083 33.278 C 225.904 32.876,197.587 32.497,195.486 32.856 M218.576 37.183 C 220.104 37.372,223.570 37.662,226.279 37.826 C 228.988 37.990,231.368 38.227,231.569 38.351 C 231.770 38.475,233.695 38.875,235.846 39.240 C 237.997 39.605,241.074 40.301,242.683 40.785 C 244.292 41.270,245.933 41.668,246.329 41.669 C 246.725 41.670,248.220 42.078,249.653 42.574 C 251.085 43.070,252.960 43.681,253.819 43.932 C 259.810 45.680,272.356 51.535,279.864 56.087 C 311.147 75.052,333.850 106.023,341.960 140.799 C 343.971 149.418,344.080 150.055,344.464 155.382 C 344.656 158.056,345.044 161.806,345.325 163.715 C 345.974 168.128,345.981 177.724,345.338 181.424 C 345.072 182.951,344.753 186.076,344.630 188.368 C 344.506 190.660,344.171 193.707,343.886 195.139 C 342.809 200.536,342.248 203.017,341.620 205.158 C 341.264 206.372,340.972 207.654,340.972 208.008 C 340.972 208.363,340.172 211.041,339.193 213.962 C 326.032 253.231,297.850 283.384,260.248 298.428 C 249.200 302.848,233.466 306.716,225.000 307.092 C 222.804 307.190,220.069 307.461,218.924 307.694 C 216.247 308.239,204.719 308.239,201.736 307.694 C 200.495 307.467,197.448 307.193,194.965 307.086 C 192.483 306.978,188.967 306.579,187.153 306.199 C 177.609 304.201,174.843 303.524,170.139 302.037 C 156.346 297.678,143.099 291.057,131.664 282.810 C 122.800 276.416,121.427 275.988,115.425 277.745 C 113.530 278.300,110.417 279.175,108.507 279.688 C 105.311 280.547,99.685 282.103,94.097 283.672 C 92.856 284.021,89.731 284.884,87.153 285.590 C 84.575 286.296,82.010 287.015,81.454 287.188 C 80.057 287.623,80.012 287.467,80.821 284.991 C 81.212 283.793,82.727 279.063,84.187 274.479 C 88.339 261.445,90.594 254.431,90.998 253.299 C 94.009 244.848,93.896 243.010,89.869 234.987 C 87.076 229.419,85.504 226.020,83.728 221.701 C 81.774 216.951,79.193 208.054,77.583 200.521 C 75.945 192.852,75.735 191.514,75.514 187.326 C 75.393 185.035,75.072 181.531,74.800 179.540 C 74.233 175.387,74.175 170.966,74.645 167.708 C 74.825 166.467,75.207 162.202,75.496 158.231 C 75.784 154.260,76.115 150.856,76.232 150.667 C 76.349 150.477,76.582 149.430,76.748 148.338 C 83.459 104.424,118.824 61.662,161.559 45.788 C 173.092 41.505,186.318 38.346,194.792 37.852 C 197.370 37.702,200.964 37.404,202.778 37.190 C 204.592 36.975,206.701 36.747,207.465 36.683 C 209.451 36.515,215.324 36.779,218.576 37.183 M119.962 130.015 C 109.579 132.900,104.312 137.566,101.714 146.181 C 99.471 153.617,102.062 161.693,108.015 165.818 C 109.921 167.140,109.503 167.361,105.101 167.362 C 98.776 167.363,97.349 168.716,96.982 175.065 C 96.566 182.270,99.314 188.002,104.706 191.172 C 109.523 194.004,122.348 195.439,128.125 193.792 C 129.557 193.383,131.787 192.817,133.081 192.535 C 137.827 191.496,142.566 188.150,145.007 184.115 C 146.130 182.258,146.021 182.218,147.233 184.920 C 148.376 187.467,151.418 190.782,153.512 191.762 C 158.371 194.036,167.166 195.115,171.701 193.994 C 182.178 191.404,185.917 188.991,188.905 182.888 C 189.783 181.094,190.025 181.192,190.434 183.507 C 190.570 184.271,191.316 186.094,192.093 187.558 L 193.506 190.220 192.252 191.686 C 185.975 199.019,188.299 209.600,197.110 213.807 L 199.826 215.104 205.511 215.222 C 212.037 215.356,213.144 215.156,217.341 213.081 C 222.628 210.467,227.827 204.753,230.181 198.968 C 231.722 195.182,234.028 185.436,234.028 182.710 C 234.028 181.739,234.478 179.099,235.027 176.844 C 235.577 174.588,236.142 171.727,236.283 170.486 C 236.424 169.245,236.833 167.071,237.193 165.656 C 237.553 164.241,237.849 161.976,237.851 160.622 C 237.853 159.268,238.087 157.393,238.372 156.455 C 240.223 150.353,238.416 148.538,230.275 148.327 C 220.128 148.063,217.708 149.502,217.708 155.795 C 217.708 156.379,217.467 157.541,217.171 158.376 C 216.876 159.212,216.557 161.146,216.463 162.674 C 216.213 166.747,214.256 174.600,213.425 174.863 C 212.227 175.244,212.101 174.533,212.797 171.323 C 213.166 169.622,213.571 167.249,213.696 166.051 C 213.822 164.854,214.169 163.213,214.467 162.406 C 216.037 158.150,215.375 150.415,213.326 149.072 C 212.113 148.277,201.494 147.928,198.993 148.602 C 196.098 149.381,193.750 154.424,193.750 159.860 C 193.750 164.348,192.826 165.514,192.655 161.242 C 192.259 151.396,180.675 144.834,168.403 147.505 C 167.543 147.692,165.645 148.085,164.184 148.378 C 156.627 149.896,149.919 156.641,148.450 164.199 L 148.005 166.493 147.434 165.104 C 146.418 162.632,145.831 161.640,144.578 160.272 C 143.315 158.893,143.403 158.351,144.892 158.339 C 146.863 158.322,150.073 155.508,150.642 153.299 C 150.839 152.535,151.244 150.962,151.542 149.804 C 153.578 141.884,149.309 134.378,140.757 130.842 L 138.021 129.710 129.861 129.621 C 123.726 129.554,121.270 129.652,119.962 130.015 M241.555 130.018 C 238.732 131.024,237.757 136.397,239.709 140.189 C 239.980 140.715,240.361 141.693,240.556 142.361 C 240.751 143.030,242.032 146.780,243.404 150.694 C 244.776 154.609,246.190 158.750,246.546 159.896 C 246.903 161.042,247.600 163.151,248.097 164.583 C 249.082 167.427,249.084 167.894,248.146 174.653 C 247.867 176.658,247.447 178.767,247.212 179.340 C 246.977 179.913,246.716 182.413,246.631 184.896 C 246.378 192.333,246.766 192.642,256.424 192.680 C 266.292 192.719,267.573 191.977,268.061 185.938 C 268.184 184.410,268.613 181.988,269.013 180.556 C 269.414 179.123,269.918 176.623,270.133 175.000 C 270.740 170.427,271.387 168.840,274.393 164.546 C 277.164 160.589,279.582 157.105,284.182 150.445 C 285.529 148.494,287.977 144.978,289.621 142.633 C 293.651 136.884,294.215 135.724,294.012 133.608 C 293.673 130.083,291.692 129.378,282.654 129.567 C 274.875 129.729,275.101 129.550,267.040 141.927 C 265.640 144.076,264.456 145.833,264.407 145.833 C 264.358 145.833,263.902 144.466,263.395 142.795 C 262.887 141.124,262.024 138.585,261.477 137.153 C 260.931 135.720,260.308 133.988,260.095 133.304 C 259.591 131.691,258.168 130.370,256.424 129.895 C 254.372 129.338,243.204 129.429,241.555 130.018 M135.243 133.313 C 136.007 133.477,137.419 133.772,138.380 133.970 C 142.373 134.790,147.520 138.764,147.580 141.074 C 147.587 141.305,147.821 141.796,148.101 142.167 C 148.961 143.304,148.767 149.431,147.809 151.358 C 146.439 154.116,145.846 154.340,139.940 154.340 C 133.558 154.340,133.468 154.289,133.278 150.531 C 133.034 145.694,127.952 143.455,122.959 145.985 C 119.012 147.986,119.259 153.323,123.346 154.348 C 123.858 154.477,124.459 154.801,124.681 155.069 C 124.903 155.337,125.326 155.556,125.620 155.556 C 126.588 155.556,135.591 158.235,137.153 158.988 C 142.694 161.660,144.679 165.010,144.820 171.926 C 144.920 176.814,144.903 176.896,142.947 180.729 C 140.892 184.756,136.657 188.180,132.642 189.062 C 132.063 189.189,131.127 189.524,130.561 189.806 C 129.711 190.230,127.937 190.299,120.408 190.203 L 111.285 190.086 108.507 188.918 C 105.004 187.445,103.165 185.970,102.144 183.813 C 101.703 182.881,101.102 181.677,100.810 181.139 C 99.905 179.470,100.031 173.989,101.006 172.620 C 102.275 170.837,102.827 170.698,108.464 170.748 C 114.163 170.799,114.744 171.007,115.597 173.298 C 115.803 173.852,116.150 174.780,116.367 175.359 C 117.187 177.552,124.625 179.311,126.012 177.640 C 126.233 177.374,126.932 177.059,127.565 176.940 C 129.264 176.621,130.157 174.860,129.548 173.030 C 128.847 170.925,124.880 168.347,121.045 167.505 C 120.464 167.377,119.749 167.145,119.456 166.988 C 119.163 166.832,117.595 166.279,115.972 165.759 C 114.349 165.240,112.774 164.607,112.473 164.352 C 112.171 164.097,111.813 163.889,111.677 163.889 C 111.018 163.889,106.597 160.107,106.597 159.543 C 106.597 159.385,106.363 158.997,106.077 158.681 C 104.180 156.585,104.237 148.577,106.181 143.924 C 107.325 141.186,111.064 136.817,112.272 136.808 C 112.432 136.807,112.961 136.493,113.447 136.111 C 113.932 135.729,114.570 135.417,114.863 135.417 C 115.157 135.417,115.643 135.198,115.945 134.930 C 116.434 134.496,117.545 134.254,123.264 133.331 C 125.487 132.972,133.593 132.960,135.243 133.313 M255.486 134.055 C 256.718 134.485,257.746 136.028,258.274 138.238 C 258.652 139.823,259.166 141.468,260.645 145.833 C 261.131 147.266,261.699 149.179,261.909 150.085 C 262.153 151.144,262.513 151.804,262.915 151.931 C 263.653 152.165,264.931 151.820,264.931 151.387 C 264.931 151.104,268.392 145.858,271.286 141.757 C 271.992 140.756,272.569 139.863,272.569 139.771 C 272.569 139.410,275.437 135.453,276.261 134.678 C 277.150 133.842,285.324 133.234,287.692 133.828 C 289.429 134.264,290.182 136.157,289.063 137.277 C 288.776 137.563,288.531 137.926,288.518 138.083 C 288.506 138.240,287.804 139.306,286.960 140.451 C 284.767 143.429,283.333 145.496,283.333 145.680 C 283.333 145.768,282.510 146.971,281.503 148.354 C 279.370 151.285,277.748 153.611,277.257 154.445 C 277.066 154.769,276.402 155.686,275.781 156.482 C 275.161 157.278,274.653 158.043,274.653 158.182 C 274.653 158.322,274.106 159.103,273.438 159.919 C 272.769 160.734,272.222 161.501,272.222 161.622 C 272.222 161.743,271.402 162.967,270.399 164.341 C 268.013 167.611,267.480 168.834,267.180 171.729 C 267.043 173.050,266.708 174.678,266.434 175.344 C 266.161 176.011,265.856 177.808,265.757 179.337 C 265.657 180.867,265.367 182.743,265.111 183.507 C 264.855 184.271,264.552 185.448,264.439 186.123 C 264.075 188.288,261.160 190.674,259.607 190.079 C 259.327 189.971,258.995 190.050,258.869 190.254 C 258.743 190.458,258.405 190.625,258.119 190.625 C 257.832 190.625,257.694 190.469,257.813 190.278 C 258.102 189.809,256.388 189.832,255.495 190.310 C 254.983 190.584,254.682 190.584,254.407 190.310 C 254.199 190.101,253.608 189.931,253.095 189.931 C 249.972 189.931,249.159 188.191,250.176 183.681 C 250.456 182.439,250.845 180.017,251.040 178.299 C 251.236 176.580,251.652 174.399,251.965 173.452 C 252.829 170.840,252.744 166.502,251.796 164.762 C 251.381 164.001,251.041 163.064,251.040 162.679 C 251.040 162.294,250.565 160.815,249.985 159.391 C 249.405 157.968,248.791 156.249,248.621 155.572 C 248.313 154.347,247.368 151.500,246.829 150.174 C 246.323 148.929,245.451 146.381,245.106 145.139 C 244.920 144.470,244.553 143.533,244.291 143.056 C 244.028 142.578,243.700 141.563,243.562 140.799 C 243.423 140.035,243.096 138.988,242.836 138.472 C 242.074 136.967,242.221 134.859,243.133 134.221 C 244.065 133.568,253.716 133.439,255.486 134.055 M297.917 147.603 C 297.248 147.774,295.566 148.141,294.177 148.420 C 286.827 149.897,280.597 156.188,278.689 164.063 C 276.828 171.741,276.736 172.400,276.736 178.138 C 276.736 186.846,279.280 190.552,286.806 192.807 C 303.149 197.704,318.975 190.532,320.840 177.383 C 321.035 176.012,321.593 173.391,322.081 171.559 C 325.499 158.728,321.547 150.761,310.417 148.039 C 306.913 147.182,300.451 146.957,297.917 147.603 M128.212 149.181 C 129.505 149.395,129.514 149.408,129.514 151.056 L 129.514 152.715 127.649 152.282 C 123.945 151.421,122.255 149.703,124.680 149.264 C 126.411 148.952,126.771 148.943,128.212 149.181 M180.848 151.539 C 184.146 152.770,187.847 155.322,187.847 156.365 C 187.847 156.558,188.061 156.963,188.322 157.264 C 188.582 157.566,189.073 158.711,189.411 159.809 C 189.749 160.907,190.160 161.806,190.325 161.806 C 190.490 161.806,190.625 162.274,190.625 162.847 C 190.625 163.420,190.487 163.889,190.318 163.889 C 189.777 163.889,188.334 170.199,187.977 174.132 C 187.855 175.469,187.475 177.193,187.133 177.963 C 186.790 178.734,186.403 179.789,186.272 180.307 C 186.142 180.826,185.897 181.250,185.726 181.250 C 185.556 181.250,185.417 181.536,185.417 181.885 C 185.417 183.747,178.401 189.236,176.021 189.236 C 175.727 189.236,175.291 189.431,175.053 189.670 C 173.461 191.264,156.933 190.166,154.834 188.327 C 154.532 188.063,154.142 187.842,153.966 187.836 C 153.514 187.821,151.736 186.211,151.736 185.818 C 151.736 185.638,151.502 185.401,151.215 185.291 C 150.929 185.181,150.693 184.813,150.692 184.473 C 150.691 184.133,150.443 183.385,150.142 182.813 C 149.222 181.065,149.163 178.594,149.965 175.300 C 150.366 173.650,150.694 171.562,150.694 170.659 C 150.694 169.756,150.927 168.293,151.211 167.408 C 151.495 166.523,152.138 164.431,152.640 162.760 C 153.143 161.089,153.692 159.722,153.860 159.722 C 154.029 159.722,154.167 159.553,154.167 159.347 C 154.167 158.242,159.620 153.145,160.836 153.113 C 161.083 153.107,161.910 152.800,162.674 152.431 C 163.438 152.062,164.318 151.754,164.630 151.748 C 164.943 151.741,165.646 151.492,166.193 151.194 C 167.581 150.439,178.593 150.698,180.848 151.539 M309.896 151.283 C 318.070 153.703,321.732 159.881,319.331 167.202 C 319.020 168.149,318.620 170.252,318.441 171.875 C 317.347 181.811,313.531 186.925,305.233 189.575 C 302.263 190.524,290.075 190.625,287.946 189.718 C 280.315 186.469,278.493 182.678,280.368 173.958 C 280.676 172.526,281.071 170.145,281.247 168.667 C 281.917 163.027,284.304 157.940,287.480 155.388 C 289.032 154.140,290.649 153.125,291.084 153.125 C 291.319 153.125,291.828 152.904,292.215 152.633 C 292.601 152.362,293.534 152.029,294.289 151.893 C 295.043 151.756,296.050 151.434,296.528 151.176 C 297.769 150.506,307.535 150.584,309.896 151.283 M210.764 152.183 C 211.902 152.756,212.061 154.636,211.330 158.854 C 211.032 160.573,210.631 163.073,210.439 164.410 C 210.246 165.747,209.839 167.700,209.533 168.750 C 208.321 172.918,209.285 177.946,211.371 178.338 C 215.830 179.174,218.034 176.718,218.729 170.139 C 218.921 168.325,219.394 165.512,219.780 163.889 C 220.165 162.266,220.638 159.487,220.830 157.713 C 221.406 152.382,222.277 151.736,228.894 151.736 C 233.400 151.736,234.103 151.939,234.892 153.465 C 235.464 154.571,235.601 157.301,235.111 157.830 C 234.646 158.331,233.657 163.223,233.336 166.606 C 233.178 168.263,232.802 170.321,232.499 171.181 C 232.196 172.040,231.855 173.837,231.742 175.174 C 231.628 176.510,231.158 179.187,230.698 181.122 C 230.238 183.056,229.697 186.244,229.496 188.205 C 229.295 190.167,228.925 192.178,228.674 192.674 C 228.423 193.170,228.108 194.182,227.974 194.921 C 227.840 195.661,227.598 196.520,227.435 196.831 C 227.273 197.142,226.720 198.255,226.205 199.306 C 225.691 200.356,225.053 201.462,224.788 201.763 C 224.522 202.065,224.306 202.478,224.306 202.682 C 224.306 203.217,219.534 207.911,218.732 208.166 C 218.360 208.284,218.056 208.526,218.056 208.704 C 218.056 208.882,217.842 209.028,217.582 209.028 C 217.321 209.028,216.735 209.316,216.279 209.668 C 214.584 210.980,209.587 211.911,205.382 211.699 C 196.306 211.243,192.136 207.899,192.225 201.152 C 192.278 197.160,193.001 195.632,196.441 192.248 C 198.674 190.051,198.674 190.050,196.502 187.854 C 193.954 185.280,193.294 176.075,195.263 170.598 C 195.550 169.799,195.818 168.003,195.858 166.605 C 195.898 165.206,196.119 163.672,196.349 163.194 C 196.696 162.474,197.238 159.931,198.471 153.241 C 198.732 151.824,208.398 150.992,210.764 152.183 M169.659 162.508 C 167.678 163.109,165.278 166.410,165.278 168.534 C 165.278 169.132,164.965 170.713,164.584 172.048 C 163.611 175.448,164.015 176.974,166.310 178.570 C 168.476 180.076,173.264 177.477,173.264 174.795 C 173.264 174.420,173.473 173.805,173.730 173.428 C 174.853 171.776,175.529 166.489,174.819 164.914 C 173.849 162.762,171.868 161.839,169.659 162.508 M299.801 162.518 C 298.153 163.008,296.263 165.259,296.138 166.879 C 296.081 167.621,295.772 168.620,295.451 169.097 C 294.448 170.589,293.922 174.951,294.561 176.479 C 296.504 181.130,303.161 178.862,303.999 173.264 C 304.128 172.405,304.452 171.174,304.721 170.531 C 305.988 167.487,304.722 162.519,302.673 162.495 C 302.444 162.493,301.944 162.425,301.563 162.345 C 301.181 162.265,300.388 162.343,299.801 162.518 M171.119 169.614 C 170.963 173.191,170.299 174.715,168.802 174.937 C 167.940 175.065,167.902 174.677,168.378 170.573 C 169.001 165.196,171.348 164.374,171.119 169.614 M301.611 167.274 C 301.498 167.799,301.222 169.401,300.997 170.833 C 300.545 173.719,299.906 175.000,298.918 175.000 C 297.899 175.000,297.952 169.163,298.987 167.489 C 299.972 165.894,301.944 165.733,301.611 167.274 M125.247 172.977 C 126.746 174.222,124.240 175.284,121.032 174.763 C 119.482 174.512,118.048 171.651,118.995 170.704 C 119.208 170.491,124.625 172.461,125.247 172.977 M212.270 189.657 C 211.668 190.094,210.830 190.686,210.408 190.972 C 209.679 191.466,208.297 192.800,207.403 193.872 C 206.516 194.934,206.199 197.123,206.743 198.425 C 207.812 200.982,212.692 199.355,213.420 196.199 C 213.532 195.711,213.845 194.959,214.115 194.527 C 214.385 194.094,214.640 192.688,214.681 191.402 C 214.770 188.670,214.199 188.257,212.270 189.657 " stroke="none" fill="#8eb5d8" fill-rule="evenodd"></path></g></svg>